<svg width="56" height="31" viewBox="0 0 56 31" fill="none" xmlns="http://www.w3.org/2000/svg">
<path d="M6.41881 29.38C6.58687 29.5991 6.90073 29.6404 7.11985 29.4724L10.6905 26.7336C10.9096 26.5656 10.951 26.2517 10.7829 26.0326C10.6148 25.8135 10.301 25.7721 10.0819 25.9402L6.90797 28.3746L4.47353 25.2007C4.30547 24.9816 3.9916 24.9402 3.77249 25.1083C3.55338 25.2764 3.512 25.5902 3.68006 25.8093L6.41881 29.38ZM50.4306 1.60194C45.4026 8.16752 40.5353 10.663 36.0044 11.3773C31.4322 12.0982 27.1574 11.0222 23.2066 10.3025C19.3159 9.5938 15.6588 9.21414 12.6848 11.6809C9.74727 14.1175 7.61016 19.2237 6.31983 29.0103L7.31125 29.141C8.60008 19.3658 10.7078 14.62 13.3232 12.4506C15.9022 10.3115 19.1062 10.5721 23.0274 11.2863C26.8886 11.9897 31.3764 13.1193 36.1602 12.3651C40.9852 11.6044 46.0673 8.94423 51.2245 2.20994L50.4306 1.60194Z" fill="white"/>
</svg>
