<svg width="111" height="65" viewBox="0 0 111 65" fill="none" xmlns="http://www.w3.org/2000/svg">
<path d="M102.669 30.625L103.094 30.8879L102.669 30.625ZM9.80289 64.121C9.99815 64.3163 10.3147 64.3163 10.51 64.121L13.6921 60.9392C13.8874 60.744 13.8874 60.4274 13.6922 60.2321C13.4969 60.0368 13.1803 60.0368 12.9851 60.2321L10.1565 63.0604L7.32822 60.2318C7.13296 60.0365 6.81638 60.0365 6.62111 60.2317C6.42584 60.427 6.42582 60.7436 6.62107 60.9389L9.80289 64.121ZM102.244 30.3621C99.5934 34.6496 92.9212 41.1482 83.3061 44.586C73.7162 48.0147 61.1844 48.4042 46.7659 40.4747L46.284 41.3509C60.9585 49.4212 73.7888 49.0507 83.6427 45.5276C93.4714 42.0135 100.325 35.3682 103.094 30.8879L102.244 30.3621ZM46.7659 40.4747C39.4428 36.4473 33.4383 34.9421 28.5399 35.226C23.6264 35.5107 19.8712 37.5935 17.0632 40.6448C11.481 46.7106 9.65683 56.5794 9.65647 63.7674L10.6565 63.7675C10.6568 56.6707 12.4704 47.1122 17.799 41.322C20.4464 38.4453 23.9648 36.4928 28.5978 36.2243C33.2458 35.9549 39.0606 37.3784 46.284 41.3509L46.7659 40.4747ZM103.094 30.8879C106.52 25.3466 109.911 13.6079 99.2659 1.04556L98.503 1.69203C108.802 13.847 105.499 25.0958 102.244 30.3621L103.094 30.8879Z" fill="white"/>
</svg>
