<svg width="59" height="35" viewBox="0 0 59 35" fill="none" xmlns="http://www.w3.org/2000/svg">
<path d="M52.5 6.5L52.952 6.71385L52.952 6.71385L52.5 6.5ZM7.58567 34.0121C7.75374 34.2312 8.0676 34.2726 8.28671 34.1045L11.8573 31.3658C12.0764 31.1977 12.1178 30.8839 11.9498 30.6647C11.7817 30.4456 11.4678 30.4042 11.2487 30.5723L8.07484 33.0067L5.6404 29.8329C5.47234 29.6138 5.15847 29.5724 4.93936 29.7404C4.72025 29.9085 4.67887 30.2224 4.84693 30.4415L7.58567 34.0121ZM52.048 6.28615C48.8566 13.0312 44.8941 15.5944 40.6999 16.3428C36.4308 17.1046 31.874 16.0084 27.3875 15.2381C22.9714 14.4799 18.5957 14.0358 15.0122 16.3957C11.4218 18.7601 8.78079 23.8274 7.4867 33.6424L8.47812 33.7731C9.76319 24.0265 12.3522 19.3447 15.5622 17.2308C18.779 15.1124 22.774 15.4607 27.2183 16.2237C31.5922 16.9747 36.3855 18.1285 40.8756 17.3273C45.4406 16.5127 49.6465 13.6998 52.952 6.71385L52.048 6.28615ZM52.952 6.71385C53.7292 5.07126 54.0097 3.49906 53.4903 0.902011L52.5097 1.09813C52.9903 3.50094 52.7263 4.85257 52.048 6.28615L52.952 6.71385Z" fill="white"/>
</svg>
